<?xml version="1.0" encoding="UTF-8" standalone="no" ?>
<!DOCTYPE svg PUBLIC "-//W3C//DTD SVG 1.1//EN" "http://www.w3.org/Graphics/SVG/1.1/DTD/svg11.dtd">
<svg xmlns="http://www.w3.org/2000/svg" xmlns:xlink="http://www.w3.org/1999/xlink" version="1.1" width="69" height="69" viewBox="0 0 69 69" xml:space="preserve">
<desc>Created with Fabric.js 5.3.0</desc>
<defs>
</defs>
<g transform="matrix(0 0.2974839331 -0.3041115656 0 34.5642544292 34.5)" id="W32XB4CJLuj7c-VzoK-DI"  >
<path style="stroke: rgb(0,0,0); stroke-width: 2; stroke-dasharray: none; stroke-linecap: butt; stroke-dashoffset: 0; stroke-linejoin: miter; stroke-miterlimit: 4; fill: rgb(245,245,245); fill-opacity: 0; fill-rule: nonzero; opacity: 1;" vector-effect="non-scaling-stroke"  transform=" translate(0.0000031398, 0)" d="M 32.94515 -85.03553 L 41.03612 -83.02020999999999 C 41.03612 -83.02020999999999 71.99005 -40.77004999999999 87.38049 -19.76308999999999 C 102.77091999999999 1.2438800000000079 102.59786 1.0076600000000084 102.59786 1.0076600000000084 L 41.03612 85.03553 L -39.549580000000006 85.03553 L -39.549580000000006 85.03553 C -49.708310000000004 85.03553 -59.080000000000005 79.68455999999999 -64.07567 71.03183 L -100.93805 7.184519999999999 L -100.93805 7.184519999999999 C -103.15125 3.3511699999999993 -103.15125 -1.3358500000000006 -100.93805 -5.169210000000001 L -64.07567 -69.01652 L -64.07567 -69.01652 C -59.062110000000004 -77.70023 -49.74635000000001 -83.16172 -39.55399 -83.39268 z" stroke-linecap="round" />
</g>
<g transform="matrix(0 0.2612956049 0.262982098 0 15.4984022233 43.1109507889)" id="jo8bPJVHOl4calua55ULU"  >
<path style="stroke: rgb(0,0,0); stroke-width: 2; stroke-dasharray: none; stroke-linecap: butt; stroke-dashoffset: 0; stroke-linejoin: miter; stroke-miterlimit: 4; fill: none; fill-rule: nonzero; opacity: 1;" vector-effect="non-scaling-stroke"  transform=" translate(-0.0000092038, 0.000005)" d="M 21.3345 -45.50799 L 27.580329999999996 -45.50799 L 27.580329999999996 -45.50799 C 28.509229999999995 -45.50799 29.367159999999995 -45.01426 29.829369999999997 -44.21369 L 75.78005999999999 35.374979999999994 L 75.78005999999999 35.374979999999994 C 76.79849999999999 37.13896999999999 76.25156 39.386269999999996 74.53444999999999 40.492999999999995 L 66.75362999999999 45.50798999999999 L 23.729309999999984 -14.16145000000001 C 23.729309999999984 -14.16145000000001 18.427369999999982 -25.70253000000001 11.893539999999984 -25.73623000000001 C 5.359699999999984 -25.76992000000001 -21.803040000000014 -25.944890000000008 -21.803040000000014 -25.944890000000008 C -21.803040000000014 -25.944890000000008 -16.821860000000015 -26.360920000000007 -46.93935000000002 -25.73623000000001 C -77.05684000000002 -25.11154000000001 -52.66339000000002 -26.04743000000001 -55.06296000000002 -25.944890000000008 C -58.85261000000002 -25.782950000000007 -62.55161000000002 -25.732630000000007 -65.77232000000002 -25.73623000000001 C -71.89665000000002 -25.74308000000001 -76.29151000000002 -25.944890000000008 -76.29151000000002 -25.944890000000008 L -68.81505000000001 -43.46788000000001 L -68.81505000000001 -43.46788000000001 C -68.28736 -44.70466000000001 -67.06643000000001 -45.50800000000001 -65.71443000000001 -45.50800000000001 z" stroke-linecap="round" />
</g>
<g transform="matrix(0 0.2612956049 -0.262982098 0 53.5015977767 43.0193877351)" id="CH5cjb5ICRtScU7Mh7250"  >
<path style="stroke: rgb(0,0,0); stroke-width: 2; stroke-dasharray: none; stroke-linecap: butt; stroke-dashoffset: 0; stroke-linejoin: miter; stroke-miterlimit: 4; fill: none; fill-rule: nonzero; opacity: 1;" vector-effect="non-scaling-stroke"  transform=" translate(-0.0000092038, 0.000005)" d="M 21.3345 -45.50799 L 27.580329999999996 -45.50799 L 27.580329999999996 -45.50799 C 28.509229999999995 -45.50799 29.367159999999995 -45.01426 29.829369999999997 -44.21369 L 75.78005999999999 35.374979999999994 L 75.78005999999999 35.374979999999994 C 76.79849999999999 37.13896999999999 76.25156 39.386269999999996 74.53444999999999 40.492999999999995 L 66.75362999999999 45.50798999999999 L 23.729309999999984 -14.16145000000001 C 23.729309999999984 -14.16145000000001 18.427369999999982 -25.70253000000001 11.893539999999984 -25.73623000000001 C 5.359699999999984 -25.76992000000001 -21.803040000000014 -25.944890000000008 -21.803040000000014 -25.944890000000008 C -21.803040000000014 -25.944890000000008 -16.821860000000015 -26.360920000000007 -46.93935000000002 -25.73623000000001 C -77.05684000000002 -25.11154000000001 -52.66339000000002 -26.04743000000001 -55.06296000000002 -25.944890000000008 C -58.85261000000002 -25.782950000000007 -62.55161000000002 -25.732630000000007 -65.77232000000002 -25.73623000000001 C -71.89665000000002 -25.74308000000001 -76.29151000000002 -25.944890000000008 -76.29151000000002 -25.944890000000008 L -68.81505000000001 -43.46788000000001 L -68.81505000000001 -43.46788000000001 C -68.28736 -44.70466000000001 -67.06643000000001 -45.50800000000001 -65.71443000000001 -45.50800000000001 z" stroke-linecap="round" />
</g>
<g transform="matrix(-0.5303971796 -0.0370889841 -0.0418996439 0.5991928536 44.1018732252 37.2656280623)" id="z6PE8rQseEI2_RSzb5jEh"  >
<path style="stroke: rgb(0,0,0); stroke-width: 3; stroke-dasharray: none; stroke-linecap: butt; stroke-dashoffset: 0; stroke-linejoin: miter; stroke-miterlimit: 4; fill: rgb(0,0,0); fill-rule: nonzero; opacity: 1;" vector-effect="non-scaling-stroke"  transform=" translate(2.085e-7, -0.0000047781)" d="M -17.84617 -20.39925 C -17.906950000000002 -20.81221 -17.734180000000002 -21.225189999999998 -17.38422 -21.5035 C -17.03425 -21.78182 -16.55194 -21.889799999999997 -16.094559999999998 -21.79224 L 15.725250000000003 -14.68149 L 17.85816 -13.4923 L 15.468890000000002 16.75283 L 15.468890000000002 16.75283 C 15.445380000000002 17.05877 15.193110000000003 17.31279 14.853350000000002 17.37265 L -9.245719999999999 21.7957 L -9.245719999999999 21.7957 C -9.71225 21.88127 -10.197999999999999 21.79221 -10.587749999999998 21.54965 C -10.977509999999999 21.30709 -11.236559999999997 20.93263 -11.303489999999998 20.51507 z" stroke-linecap="round" />
</g>
<g transform="matrix(0.5303971796 -0.0370889841 0.0418996439 0.5991928536 24.8981281614 37.192613707)" id="Zrm-h_2YXXa9ZyvVqjZ0e"  >
<path style="stroke: rgb(0,0,0); stroke-width: 3; stroke-dasharray: none; stroke-linecap: butt; stroke-dashoffset: 0; stroke-linejoin: miter; stroke-miterlimit: 4; fill: rgb(0,0,0); fill-rule: nonzero; opacity: 1;" vector-effect="non-scaling-stroke"  transform=" translate(2.085e-7, -0.0000047781)" d="M -17.84617 -20.39925 C -17.906950000000002 -20.81221 -17.734180000000002 -21.225189999999998 -17.38422 -21.5035 C -17.03425 -21.78182 -16.55194 -21.889799999999997 -16.094559999999998 -21.79224 L 15.725250000000003 -14.68149 L 17.85816 -13.4923 L 15.468890000000002 16.75283 L 15.468890000000002 16.75283 C 15.445380000000002 17.05877 15.193110000000003 17.31279 14.853350000000002 17.37265 L -9.245719999999999 21.7957 L -9.245719999999999 21.7957 C -9.71225 21.88127 -10.197999999999999 21.79221 -10.587749999999998 21.54965 C -10.977509999999999 21.30709 -11.236559999999997 20.93263 -11.303489999999998 20.51507 z" stroke-linecap="round" />
</g>
</svg>